# xmcd
# Copyright (C) 1995-1998 Ti Kan
#
# Track frame offsets:
#       150
#       18358
#       45254
#       85402
#       97108
#       134307
#       157503
#       186959
#       207982
#       239958
#
# Disc length: 3290 seconds
#
# Revision: 0
# Processed by: cddbd v1.5.2PL0 Copyright (c) Steve Scherf et al.
# Submitted via: CD-Import v1.0
#
DISCID=800cd80a
DTITLE=Helma Sanders-Brahms - 1001 Nacht
DYEAR=1900
DGENRE=
TTITLE0=Die Geschichte Der Ersten Dame, Der Hausehrrin
TTITLE1=Die Geschichte Der Ersten Dame, Der Hausehrrin
TTITLE2=Die Geschichte Der Ersten Dame, Der Hausehrrin
TTITLE3=Die Geschichte Der Ersten Dame, Der Hausehrrin
TTITLE4=Die Geschichte Der Zweiten Dame
TTITLE5=Die Geschichte Der Zweiten Dame
TTITLE6=Die Geschichte Der Zweiten Dame
TTITLE7=Die Drei Äpfel
TTITLE8=Die Drei Äpfel
TTITLE9=Die Drei Äpfel
EXTD=
EXTT0=
EXTT1=
EXTT2=
EXTT3=
EXTT4=
EXTT5=
EXTT6=
EXTT7=
EXTT8=
EXTT9=
PLAYORDER=
